<svg width="234" height="186" viewBox="0 0 234 186" fill="none" xmlns="http://www.w3.org/2000/svg">
<path d="M116.996 0.000744629C104.223 -0.0389135 91.495 1.50569 79.104 4.59903C68.0151 7.37799 57.3535 11.6399 47.4089 17.2691C38.3265 22.4078 30.066 28.8739 22.9018 36.4525C16.1712 43.5757 10.6954 51.7827 6.70595 60.7269C2.8186 69.523 0.577371 78.9547 0.0930187 88.556C-0.515856 101.623 1.87058 114.657 7.07074 126.665C9.65483 132.603 12.9368 138.214 16.8476 143.38C17.8573 144.715 18.9016 146.029 19.977 147.31C20.3881 147.688 20.6686 148.186 20.7781 148.733C20.7172 149.562 20.4865 150.37 20.1002 151.106C18.8268 154.643 17.5533 158.18 16.2799 161.717C14.933 165.465 13.5911 169.215 12.2541 172.968C11.6453 174.682 10.6931 176.739 12.5006 178.098C14.1733 179.356 16.3053 178.098 18.0052 177.493C25.3797 174.881 32.7466 172.248 40.1058 169.594L42.5385 168.723C43.2306 168.357 43.9999 168.16 44.7831 168.149C45.4289 168.346 46.0365 168.651 46.5799 169.051C47.2815 169.448 47.987 169.837 48.6963 170.217C51.4804 171.713 54.3239 173.09 57.2268 174.35C63.2635 176.976 69.4895 179.145 75.8521 180.84C89.8142 184.462 104.202 186.192 118.626 185.983C130.835 185.937 143.003 184.554 154.91 181.861C165.541 179.456 175.815 175.685 185.473 170.641C194.21 166.068 202.209 160.211 209.202 153.266C215.867 146.608 221.37 138.887 225.483 130.419C229.627 121.747 232.294 112.447 233.377 102.901C234.58 93.1695 234.038 83.3022 231.777 73.7602C229.466 64.4479 225.519 55.6183 220.118 47.6814C214.396 39.3065 207.373 31.8951 199.313 25.7262C190.625 19.0865 181.042 13.7021 170.848 9.73182C159.581 5.3536 147.792 2.45002 135.778 1.09354C129.544 0.363549 123.273 -0.00134287 116.996 0.000744629C114.458 0.000744629 114.454 3.9358 116.996 3.9358C132.626 3.84633 148.169 6.25423 163.035 11.0681C175.961 15.2445 188.023 21.7186 198.64 30.1777C208.304 37.8953 216.24 47.5476 221.937 58.5126C227.287 69.0198 230.067 80.6417 230.05 92.4271C230.103 104.305 227.628 116.059 222.788 126.912C217.916 137.48 210.857 146.9 202.075 154.55C192.53 162.756 181.552 169.136 169.69 173.37C155.95 178.28 141.553 181.116 126.974 181.785C109.486 182.729 91.7917 181.264 74.9073 176.493C67.1221 174.323 59.5748 171.379 52.3787 167.705C50.6361 166.807 48.9633 165.772 47.2199 164.881C45.0288 163.762 43.112 164.346 40.9356 165.127C36.4662 166.727 31.9979 168.329 27.5307 169.932C25.2921 170.733 23.0525 171.532 20.8117 172.33C19.5991 172.762 18.3861 173.193 17.1729 173.623C16.0354 174.114 14.86 174.513 13.6582 174.816H14.7033L15.257 175.368V176.414C15.5751 175.159 15.9946 173.931 16.5116 172.742C17.01 171.341 17.5101 169.94 18.0118 168.539C18.9429 165.938 19.876 163.338 20.8109 160.739C21.7037 158.256 22.5979 155.773 23.4934 153.289C24.3651 150.868 25.3781 148.518 23.9592 146.065C23.3232 145.127 22.6148 144.24 21.8404 143.412C21.1097 142.514 20.4004 141.601 19.7125 140.672C18.3585 138.839 17.0812 136.954 15.8806 135.015C13.5004 131.189 11.4571 127.164 9.77375 122.986C3.75811 107.932 2.16095 90.8252 5.98707 75.0276C9.24177 62.0573 15.6924 50.1039 24.7529 40.2531C34.7113 29.2784 47.224 20.873 60.7843 14.9605C76.2588 8.21354 93.1432 4.80644 109.974 4.08501C112.313 3.98499 114.654 3.93526 116.996 3.9358C119.537 3.9358 119.537 0.000744629 116.996 0.000744629Z" fill="#2400FF"/>
</svg>
