<svg width="182" height="186" viewBox="0 0 182 186" fill="none" xmlns="http://www.w3.org/2000/svg">
<path d="M103.434 67.1535C104.047 65.007 102.805 62.7698 100.658 62.1566C98.5117 61.5433 96.2745 62.7862 95.6613 64.9326L79.493 121.521C78.8797 123.668 80.1226 125.905 82.2691 126.518C84.4155 127.132 86.6528 125.889 87.266 123.742L103.434 67.1535Z" fill="#2400FF"/>
<path d="M66.3991 75.7391C67.7413 77.5229 67.3832 80.057 65.5993 81.3992L52.696 91.1073C50.5468 92.7246 50.5468 95.9501 52.696 97.5673L65.5993 107.276C67.3832 108.618 67.7413 111.152 66.3991 112.936C65.057 114.72 62.5229 115.077 60.739 113.736L47.8357 104.027C41.3881 99.1761 41.3881 89.4986 47.8356 84.6476L60.739 74.9393C62.5229 73.5972 65.057 73.9552 66.3991 75.7391Z" fill="#2400FF"/>
<path d="M116.528 112.936C115.186 111.152 115.544 108.618 117.328 107.276L130.231 97.5673C132.38 95.9501 132.38 92.7246 130.231 91.1073L117.328 81.3992C115.544 80.057 115.186 77.5229 116.528 75.7391C117.87 73.9552 120.404 73.5972 122.188 74.9393L135.091 84.6476C141.539 89.4986 141.539 99.1761 135.091 104.027L122.188 113.736C120.404 115.077 117.87 114.72 116.528 112.936Z" fill="#2400FF"/>
<path d="M180 94C180 142.877 139.377 183.5 90.5 183.5C41.6652 183.5 2 142.42 2 93.5C2 44.5375 41.7063 2 90.5 2C139.308 2 180 45.0526 180 94Z" stroke="#2400FF" stroke-width="4"/>
</svg>
